<svg version="1.1" id="Layer_1" xmlns="http://www.w3.org/2000/svg" xmlns:xlink="http://www.w3.org/1999/xlink" x="0px" y="0px"
	 width="100%" viewBox="0 0 512 512" enable-background="new 0 0 512 512" xml:space="preserve">
<path fill="#000000" opacity="1.000000" stroke="none" 
	d="
M484.192017,317.689667 
	C481.659729,330.163116 479.699158,342.287811 476.686218,354.221252 
	C470.906738,377.112366 463.318176,399.382538 454.539398,421.269043 
	C452.194366,427.115417 449.545990,432.845551 447.354218,438.746918 
	C440.064392,458.375275 424.880890,469.921204 406.919861,478.726898 
	C392.448242,485.821838 377.317474,489.353271 361.078491,488.520386 
	C349.302704,487.916412 343.568787,483.160278 341.449860,471.618774 
	C339.516815,461.089539 341.144348,450.799744 342.398010,440.414825 
	C343.691772,429.697998 345.006470,418.962372 345.652649,408.195404 
	C346.177094,399.456604 346.342773,390.675964 345.826538,381.883392 
	C345.217896,371.516632 339.495148,363.745270 330.959137,362.669495 
	C324.528870,361.859100 314.763336,368.097748 311.365631,375.236023 
	C308.067261,382.165619 307.197388,389.727875 307.383148,397.127747 
	C307.745392,411.556915 309.166290,425.956085 309.913574,440.379883 
	C310.780884,457.121246 317.257660,471.946655 325.046234,486.380798 
	C329.569275,494.763062 327.846985,498.866455 319.909241,504.353516 
	C310.383453,510.938385 300.424927,509.638763 290.157257,507.957489 
	C285.520538,507.198273 281.167542,505.725922 276.860840,503.830597 
	C265.889130,499.002045 254.891769,494.207733 243.741226,489.814636 
	C222.204269,481.329437 208.615967,465.291290 199.697708,444.582031 
	C187.563873,416.405823 177.731216,387.402039 168.771652,358.100128 
	C167.248932,353.120117 164.726822,350.728912 159.636154,349.848999 
	C152.543350,348.622986 145.476929,347.786957 138.299896,348.235901 
	C129.204254,348.804871 124.874886,354.810822 128.346146,363.360046 
	C134.470428,378.443237 140.445724,393.607819 149.477478,407.378906 
	C154.300934,414.733398 157.227356,423.215179 158.969070,431.851105 
	C160.082748,437.373016 158.161865,442.331879 153.165726,445.748718 
	C148.649246,448.837524 143.670059,450.714233 138.306290,451.192688 
	C111.776047,453.559204 88.676704,445.802002 70.737831,425.918762 
	C59.302017,413.243408 51.521812,398.039856 45.801071,381.894104 
	C43.475266,375.329956 41.160706,368.790466 39.412331,362.008850 
	C36.349358,350.128082 36.691914,337.991882 35.909977,325.952698 
	C35.274815,316.173401 36.180920,306.256317 35.048347,296.558594 
	C34.092972,288.378113 31.443724,280.378754 30.033777,272.180939 
	C27.014133,254.623856 25.399723,237.086609 26.458324,219.168320 
	C27.365126,203.819427 29.013344,188.692200 33.054100,173.903839 
	C42.126022,140.702362 58.601521,112.339729 85.314857,89.707169 
	C103.795097,74.050003 125.380547,68.915001 148.147171,65.668411 
	C159.055573,64.112831 170.008575,63.582481 181.014771,63.615696 
	C187.779388,63.636105 188.208405,62.784306 186.217560,56.422562 
	C181.519958,41.411388 186.796448,29.082367 196.921249,18.230865 
	C211.019714,3.120465 238.762985,-2.967942 258.022034,4.535796 
	C269.203979,8.892513 273.206451,18.851208 277.175537,28.755417 
	C279.401245,34.309349 279.819458,40.373085 280.157227,46.281330 
	C280.383911,50.246113 281.948273,51.189701 285.424347,50.627014 
	C292.999115,49.400848 300.653381,49.098587 308.295532,48.531570 
	C335.499725,46.513138 362.186829,49.029907 388.229279,57.196125 
	C392.485199,58.530674 394.253693,57.691170 396.142853,53.740292 
	C400.054260,45.560299 405.532196,38.367085 413.014343,33.077137 
	C426.343353,23.653427 440.612579,25.068920 454.277649,31.483782 
	C465.862518,36.922104 475.187256,45.594486 481.650787,56.964920 
	C490.148071,71.913071 486.305756,93.194023 473.015350,104.205475 
	C469.561066,107.067444 466.246521,110.149666 462.171936,112.161484 
	C459.494812,113.483315 459.287415,115.169044 460.541199,117.820435 
	C470.744659,139.397583 474.881012,162.297836 475.407257,186.023621 
	C475.571045,193.408676 479.600983,199.931641 481.031860,207.099777 
	C483.462921,219.278610 486.700012,231.279007 486.897308,243.855042 
	C487.000977,250.462921 488.625122,256.999756 488.285431,263.701508 
	C487.488403,279.426086 487.633484,295.215149 484.590790,310.769379 
	C484.179810,312.870331 484.360352,315.086975 484.192017,317.689667 
M472.200897,208.810577 
	C472.536987,204.619003 474.516968,199.820999 471.175140,196.538467 
	C468.695953,194.103226 467.928314,191.732391 467.819214,188.710175 
	C467.579346,182.066177 467.533752,175.436737 466.776825,168.793030 
	C464.917389,152.472305 461.325531,136.669693 454.201019,121.795235 
	C453.278046,119.868263 452.920349,117.314156 449.354065,118.170692 
	C438.275055,120.831635 433.893677,118.965454 428.990997,108.549889 
	C424.393829,98.783478 417.847168,91.795425 407.093323,89.165512 
	C404.531250,88.538956 402.093292,87.332214 399.665710,86.242119 
	C392.705872,83.116760 389.610504,77.733582 390.947205,70.245857 
	C391.518005,67.048492 390.537018,65.772903 387.633789,64.848831 
	C373.460052,60.337498 358.961182,57.492962 344.151184,56.386684 
	C324.510986,54.919598 304.918579,55.542912 285.402771,58.325783 
	C281.907837,58.824150 278.640289,59.209652 279.276276,64.095741 
	C279.600281,66.585068 277.642181,67.568939 275.747009,68.326393 
	C269.105255,70.980972 262.495087,73.730431 255.766998,76.149246 
	C246.989319,79.304901 239.322845,84.037766 233.045761,90.973221 
	C229.094849,95.338516 224.272614,96.125435 218.943451,94.106064 
	C216.460999,93.165398 214.032501,92.010201 211.726562,90.694565 
	C208.998718,89.138199 207.082764,89.502083 204.733795,91.776772 
	C196.281952,99.961357 191.164230,110.219643 186.335190,120.631828 
	C181.077896,131.967316 178.057983,144.045120 174.845734,156.091919 
	C171.878021,167.221558 170.013184,178.491287 169.504150,189.883759 
	C168.998337,201.203949 171.388428,212.352814 174.505844,223.226456 
	C177.831467,234.826324 183.424561,245.305954 190.626144,255.037140 
	C204.117966,273.268097 223.082886,282.749176 244.172165,288.518921 
	C250.900421,290.359650 254.164474,294.422516 256.383759,300.246735 
	C257.094177,302.111176 257.691223,304.019226 258.417328,305.877167 
	C261.431549,313.589783 266.195374,319.487885 274.892120,320.869629 
	C281.210358,321.873474 287.598419,321.705505 293.578979,319.345703 
	C298.983765,317.213043 303.887817,317.691101 308.923431,320.228424 
	C313.821411,322.696411 318.813934,324.982697 323.813385,327.241577 
	C328.646912,329.425507 333.350616,329.150085 338.209534,326.834229 
	C343.936188,324.104828 347.431824,319.410828 350.724152,314.344360 
	C354.082581,309.176147 358.270264,305.955902 365.129517,306.523682 
	C373.049835,307.179321 381.021179,307.079193 388.976562,305.711700 
	C422.207153,299.999542 446.372681,282.162445 461.149933,251.893524 
	C467.626495,238.627182 470.172668,224.216339 472.200897,208.810577 
M183.743515,88.210678 
	C186.299393,86.345863 188.850906,84.475037 191.412476,82.618057 
	C193.656586,80.991196 196.645493,79.820450 195.545425,76.104797 
	C194.414948,72.286507 191.778809,71.215172 187.917267,71.349480 
	C165.609741,72.125359 143.345871,73.199974 121.706528,79.368202 
	C112.535408,81.982407 103.297989,85.138733 96.305931,91.669212 
	C74.159676,112.353447 61.568542,138.444794 55.549713,167.817993 
	C50.879269,190.610794 53.501930,213.197617 59.990639,235.178558 
	C68.941063,265.498749 86.311485,290.572296 110.493561,310.879852 
	C112.753242,312.777466 115.278305,316.492493 118.388718,314.706177 
	C121.077080,313.162231 119.656616,309.234741 119.259140,306.308228 
	C117.737984,295.108154 115.749733,283.812988 120.110031,272.869934 
	C122.874229,265.932648 123.942917,258.967773 123.991302,251.521820 
	C124.095932,235.419891 120.613380,219.608627 121.514511,203.359421 
	C122.535645,184.946213 126.937630,167.599686 133.892273,150.842697 
	C144.397232,125.531319 161.259491,105.034286 183.743515,88.210678 
M317.593170,345.185822 
	C318.634521,344.670288 319.756775,344.270905 320.699829,343.614166 
	C322.475983,342.377228 325.894928,342.016266 325.058990,339.071320 
	C324.199249,336.042542 321.233551,335.174255 318.140503,335.581116 
	C315.654083,335.908112 313.198456,335.729462 310.702942,335.582672 
	C301.208496,335.024139 292.121063,332.452698 282.921265,330.385559 
	C281.197144,329.998138 278.919342,328.525787 277.562866,331.054993 
	C276.420776,333.184448 277.873474,334.841644 279.067688,336.447601 
	C279.657562,337.240784 280.186432,338.114655 280.908905,338.768616 
	C291.518250,348.372131 303.578278,350.340576 317.593170,345.185822 
z"/>
<path fill="#000000" opacity="1.000000" stroke="none" 
	d="
M369.500549,262.521973 
	C362.195618,254.723480 359.736572,244.857498 355.992310,235.688873 
	C353.591309,229.809586 351.213379,223.965118 347.227325,219.004730 
	C345.390961,216.719513 345.191772,214.586548 346.242584,212.109207 
	C348.777039,206.133926 351.396667,200.194077 355.026489,194.778549 
	C366.477966,177.693436 389.077911,176.365570 402.277771,192.087891 
	C415.595520,207.950653 419.694855,226.117508 414.495911,246.066299 
	C412.008514,255.610535 405.608765,262.772156 397.091064,267.610046 
	C389.339844,272.012573 377.528107,269.643250 369.500549,262.521973 
z"/>
<path fill="#000000" opacity="1.000000" stroke="none" 
	d="
M250.810852,167.453156 
	C255.240555,166.342514 259.252991,165.432541 263.504547,165.719574 
	C275.944611,166.559433 281.438019,175.300003 285.790161,185.218613 
	C287.801727,189.802933 288.516937,194.802795 289.249969,199.746536 
	C289.968109,204.590118 289.110199,208.516068 284.973602,212.066879 
	C279.156586,217.060150 275.227539,223.758667 271.270233,230.316635 
	C267.626892,236.354309 263.225800,241.687271 257.141754,245.519897 
	C239.972794,256.335541 225.855164,247.512680 219.080765,230.995438 
	C208.555420,205.332687 230.157394,174.490372 250.810852,167.453156 
z"/>
<path fill="#000000" opacity="1.000000" stroke="none" 
	d="
M319.444153,280.254364 
	C324.519409,281.538422 329.163025,282.606445 332.967377,285.983887 
	C336.435181,289.062531 336.904205,292.783234 336.077118,296.875793 
	C335.263214,300.902740 331.843292,301.485657 328.521057,302.247528 
	C320.924530,303.989563 313.301422,305.456573 307.076904,310.941223 
	C303.633179,313.975647 299.488983,313.093201 297.509003,308.899292 
	C294.442108,302.403046 289.061615,299.476105 282.822449,297.145905 
	C279.110504,295.759613 275.271942,294.090302 274.690491,289.310822 
	C273.967651,283.369507 277.930023,278.979248 284.405792,277.605408 
	C290.440002,276.325317 296.311890,277.391693 302.225342,277.982605 
	C307.842102,278.543823 313.425934,279.434448 319.444153,280.254364 
z"/>
</svg>